<?xml version="1.0" encoding="utf-8"?>
<!-- Generator: Adobe Illustrator 28.1.0, SVG Export Plug-In . SVG Version: 6.00 Build 0)  -->
<svg version="1.1" id="Layer_1" xmlns="http://www.w3.org/2000/svg" xmlns:xlink="http://www.w3.org/1999/xlink" x="0px" y="0px"
	 viewBox="0 0 800 600" style="enable-background:new 0 0 800 400;" xml:space="preserve">
<style type="text/css">
	.st0{fill:none;stroke:#5E4FA2;stroke-width:13.8697;}
	.st1{fill:none;stroke:#5E4FA2;stroke-width:12.7129;}
	.st2{fill:none;stroke:#4478B2;stroke-width:2.3136;}
	.st3{fill:none;stroke:#4BA0B1;stroke-width:1.1568;}
	.st4{fill:none;stroke:#4F63AB;stroke-width:17.3341;}
	.st5{fill:none;stroke:#5E4FA2;stroke-width:5.778;}
	.st6{fill:none;stroke:#5E4FA2;stroke-width:2.3136;}
	.st7{fill:none;stroke:#4F63AB;stroke-width:4.6212;}
	.st8{fill:none;stroke:#4F63AB;stroke-width:1.1568;}
	.st9{fill:none;stroke:#5E4FA2;stroke-width:3.4644;}
	.st10{fill:none;stroke:#5E4FA2;stroke-width:19.6478;}
	.st11{fill:none;stroke:#438CB4;stroke-width:6.9349;}
	.st12{fill:none;stroke:#4F63AB;stroke-width:11.5561;}
	.st13{fill:none;stroke:#4F63AB;stroke-width:2.3136;}
	.st14{fill:none;stroke:#5CB3AC;stroke-width:1.1568;}
	.st15{fill:none;stroke:#4BA0B1;stroke-width:2.3136;}
	.st16{fill:none;stroke:#5CB3AC;stroke-width:2.3136;}
	.st17{fill:none;stroke:#4478B2;stroke-width:1.1568;}
	.st18{fill:none;stroke:#438CB4;stroke-width:4.6212;}
	.st19{fill:none;stroke:#4478B2;stroke-width:3.4644;}
	.st20{fill:none;stroke:#438CB4;stroke-width:2.3136;}
	.st21{fill:none;stroke:#4F63AB;stroke-width:3.4644;}
	.st22{fill:none;stroke:#438CB4;stroke-width:1.1568;}
	.st23{fill:none;stroke:#5E4FA2;stroke-width:4.6212;}
	.st24{fill:none;stroke:#5E4FA2;stroke-width:8.0917;}
	.st25{fill:none;stroke:#4F63AB;stroke-width:8.0917;}
	.st26{fill:none;stroke:#5E4FA2;stroke-width:1.1568;}
	.st27{fill:none;stroke:#CCEA9F;stroke-width:1.1568;}
	.st28{fill:none;stroke:#72C3A7;stroke-width:1.1568;}
	.st29{fill:none;stroke:#FDF2A8;stroke-width:1.1568;}
	.st30{fill:none;stroke:#EC6449;stroke-width:1.1568;}
	.st31{fill:none;stroke:#72C3A7;stroke-width:2.3136;}
	.st32{fill:none;stroke:#9E0142;stroke-width:3.4644;}
	.st33{fill:none;stroke:#CCEA9F;stroke-width:2.3136;}
	.st34{fill:none;stroke:#B11746;stroke-width:2.3136;}
	.st35{fill:none;stroke:#72C3A7;stroke-width:8.0917;}
	.st36{fill:none;stroke:#FDCA79;stroke-width:1.1568;}
	.st37{fill:none;stroke:#FBF8B0;stroke-width:4.6212;}
	.st38{fill:none;stroke:#F3784C;stroke-width:1.1568;}
	.st39{fill:none;stroke:#FBF8B0;stroke-width:3.4644;}
	.st40{fill:none;stroke:#89CFA5;stroke-width:1.1568;}
	.st41{fill:none;stroke:#A0D9A3;stroke-width:1.1568;}
	.st42{fill:none;stroke:#DDF1A0;stroke-width:2.3136;}
	.st43{fill:none;stroke:#FEE89A;stroke-width:1.1568;}
	.st44{fill:none;stroke:#72C3A7;stroke-width:5.778;}
	.st45{fill:none;stroke:#FBF8B0;stroke-width:5.778;}
	.st46{fill:none;stroke:#FEDA89;stroke-width:1.1568;}
	.st47{fill:none;stroke:#FBF8B0;stroke-width:2.3136;}
	.st48{fill:none;stroke:#CCEA9F;stroke-width:4.6212;}
	.st49{fill:none;stroke:#FBF8B0;stroke-width:1.1568;}
	.st50{fill:none;stroke:#D43F4B;stroke-width:1.1568;}
	.st51{fill:none;stroke:#FDB76B;stroke-width:2.3136;}
	.st52{fill:none;stroke:#F88E53;stroke-width:1.1568;}
	.st53{fill:none;stroke:#FDB76B;stroke-width:1.1568;}
	.st54{fill:none;stroke:#F5FAAD;stroke-width:1.1568;}
	.st55{fill:none;stroke:#F88E53;stroke-width:2.3136;}
	.st56{fill:none;stroke:#9E0142;stroke-width:1.1568;}
	.st57{fill:none;stroke:#C42C4A;stroke-width:1.1568;}
	.st58{fill:none;stroke:#FEE89A;stroke-width:4.6212;}
	.st59{fill:none;stroke:#E1524A;stroke-width:1.1568;}
	.st60{fill:none;stroke:#B11746;stroke-width:1.1568;}
	.st61{fill:none;stroke:#CCEA9F;stroke-width:3.4644;}
	.st62{fill:none;stroke:#EBF7A6;stroke-width:2.3136;}
	.st63{fill:none;stroke:#FDB76B;stroke-width:3.4644;}
	.st64{fill:none;stroke:#DDF1A0;stroke-width:1.1568;}
	.st65{fill:none;stroke:#EBF7A6;stroke-width:1.1568;}
	.st66{fill:none;stroke:#FBA35E;stroke-width:1.1568;}
	.st67{fill:none;stroke:#B7E2A1;stroke-width:1.1568;}
	.st68{font-family:'Arial-BoldMT';}
	.st69{font-size:6.0566px;}
	.st70{font-size:8.4793px;}
	.st71{fill:#7B7B7B;}
	.st72{font-size:7.268px;}
</style>
<g id="visualization">
	<g>
		<rect x="449.6" y="45.5" width="3" height="1.2"/>
		<rect x="449.6" y="49.7" width="3" height="1.2"/>
		<rect x="449.6" y="53.9" width="3" height="1.2"/>
		<rect x="685.8" y="22.8" width="3" height="1.2"/>
		<rect x="685.8" y="27" width="3" height="1.2"/>
		<rect x="685.8" y="31.1" width="3" height="1.2"/>
		<rect x="685.8" y="35.3" width="3" height="1.2"/>
		<rect x="685.8" y="39.5" width="3" height="1.2"/>
		<rect x="685.8" y="43.7" width="3" height="1.2"/>
		<rect x="449.6" y="58" width="3" height="2.3"/>
		<rect x="449.6" y="63.4" width="3" height="2.3"/>
		<rect x="685.8" y="47.9" width="3" height="2.3"/>
		<rect x="685.8" y="53.2" width="3" height="2.3"/>
		<rect x="685.8" y="58.6" width="3" height="2.3"/>
		<rect x="685.8" y="63.9" width="3" height="2.3"/>
		<rect x="685.8" y="69.2" width="3" height="2.3"/>
		<rect x="685.8" y="74.6" width="3" height="2.3"/>
		<rect x="685.8" y="79.9" width="3" height="2.3"/>
		<rect x="449.6" y="68.7" width="3" height="3.5"/>
		<rect x="449.6" y="75.2" width="3" height="3.5"/>
		<rect x="685.8" y="85.3" width="3" height="3.5"/>
		<rect x="685.8" y="91.8" width="3" height="3.5"/>
		<rect x="685.8" y="98.3" width="3" height="3.5"/>
		<rect x="685.8" y="104.7" width="3" height="3.5"/>
		<rect x="685.8" y="111.2" width="3" height="3.5"/>
		<rect x="449.6" y="81.7" width="3" height="4.6"/>
		<rect x="449.6" y="89.4" width="3" height="4.6"/>
		<rect x="449.6" y="97" width="3" height="4.6"/>
		<rect x="685.8" y="117.7" width="3" height="4.6"/>
		<rect x="685.8" y="125.4" width="3" height="4.6"/>
		<rect x="685.8" y="133" width="3" height="4.6"/>
		<rect x="685.8" y="140.7" width="3" height="4.6"/>
		<rect x="449.6" y="104.7" width="3" height="5.8"/>
		<rect x="449.6" y="113.5" width="3" height="5.8"/>
		<rect x="449.6" y="122.3" width="3" height="5.8"/>
		<rect x="685.8" y="148.3" width="3" height="5.8"/>
		<rect x="449.6" y="131.1" width="3" height="6.9"/>
		<rect x="685.8" y="157.1" width="3" height="6.9"/>
		<rect x="685.8" y="167.1" width="3" height="6.9"/>
		<rect x="685.8" y="177.1" width="3" height="6.9"/>
		<rect x="449.6" y="141" width="3" height="8.1"/>
		<rect x="685.8" y="187" width="3" height="8.1"/>
		<rect x="685.8" y="198.2" width="3" height="8.1"/>
		<rect x="685.8" y="209.3" width="3" height="8.1"/>
		<rect x="685.8" y="220.4" width="3" height="9.2"/>
		<rect x="449.6" y="152.2" width="3" height="10.4"/>
		<rect x="213.4" y="71.2" width="3" height="10.4"/>
		<rect x="685.8" y="232.7" width="3" height="10.4"/>
		<rect x="685.8" y="246.1" width="3" height="10.4"/>
		<rect x="449.6" y="165.6" width="3" height="11.6"/>
		<rect x="449.6" y="180.2" width="3" height="11.6"/>
		<rect x="685.8" y="259.5" width="3" height="11.6"/>
		<rect x="213.4" y="84.7" width="3" height="12.7"/>
		<rect x="449.6" y="194.8" width="3" height="12.7"/>
		<rect x="685.8" y="274.1" width="3" height="12.7"/>
		<rect x="685.8" y="289.9" width="3" height="13.9"/>
		<rect x="685.8" y="306.8" width="3" height="15"/>
		<rect x="213.4" y="100.4" width="3" height="17.3"/>
		<rect x="685.8" y="324.8" width="3" height="17.3"/>
		<rect x="213.4" y="120.8" width="3" height="22"/>
		<rect x="449.6" y="210.5" width="3" height="23.1"/>
		<rect x="449.6" y="236.7" width="3" height="28.9"/>
		<rect x="685.8" y="345.2" width="3" height="28.9"/>
		<rect x="449.6" y="268.6" width="3" height="34.7"/>
		<rect x="449.6" y="306.3" width="3" height="45.1"/>
		<rect x="213.4" y="145.8" width="3" height="80.9"/>
		<rect x="213.4" y="229.7" width="3" height="95.9"/>
	</g>
	<g>
		<path class="st0" d="M216.4,286.3c116.6,0,116.6-27.7,233.2-27.7"/>
		<path class="st1" d="M216.4,299.6c116.6,0,116.6-2.7,233.2-2.7"/>
		<path class="st2" d="M216.4,110.8c116.6,0,116.6,129.3,233.2,129.3"/>
		<path class="st3" d="M216.4,85.2C333,85.2,333,58.6,449.6,58.6"/>
		<path class="st4" d="M216.4,206.4c116.6,0,116.6,75.4,233.2,75.4"/>
		<path class="st5" d="M216.4,255.7c116.6,0,116.6-96,233.2-96"/>
		<path class="st6" d="M216.4,249.3c116.6,0,116.6-112.5,233.2-112.5"/>
		<path class="st7" d="M216.4,175.8c116.6,0,116.6-3.3,233.2-3.3"/>
		<path class="st8" d="M216.4,147.5c116.6,0,116.6-87.7,233.2-87.7"/>
		<path class="st9" d="M216.4,234.9C333,234.9,333,84.6,449.6,84.6"/>
		<path class="st10" d="M216.4,315.8c116.6,0,116.6,25.7,233.2,25.7"/>
		<path class="st6" d="M216.4,232C333,232,333,64.5,449.6,64.5"/>
		<path class="st11" d="M216.4,139.3c116.6,0,116.6,177.4,233.2,177.4"/>
		<path class="st8" d="M216.4,161.4c116.6,0,116.6-53.8,233.2-53.8"/>
		<path class="st12" d="M216.4,220.9c116.6,0,116.6,105,233.2,105"/>
		<path class="st13" d="M216.4,163.1c116.6,0,116.6-48.5,233.2-48.5"/>
		<path class="st7" d="M216.4,180.4c116.6,0,116.6,3.2,233.2,3.2"/>
		<path class="st13" d="M216.4,183.9c116.6,0,116.6,17.8,233.2,17.8"/>
		<path class="st14" d="M216.4,78.7C333,78.7,333,269.2,449.6,269.2"/>
		<path class="st9" d="M216.4,244.1c116.6,0,116.6-126.6,233.2-126.6"/>
		<path class="st6" d="M216.4,247C333,247,333,126.9,449.6,126.9"/>
		<path class="st15" d="M216.4,96.2C333,96.2,333,309.7,449.6,309.7"/>
		<path class="st16" d="M216.4,80.5c116.6,0,116.6,227,233.2,227"/>
		<path class="st14" d="M216.4,71.8C333,71.8,333,46.1,449.6,46.1"/>
		<path class="st15" d="M216.4,92.8C333,92.8,333,214,449.6,214"/>
		<path class="st17" d="M216.4,101c116.6,0,116.6-11,233.2-11"/>
		<path class="st18" d="M216.4,131.2c116.6,0,116.6,87.4,233.2,87.4"/>
		<path class="st19" d="M216.4,113.7c116.6,0,116.6,157.8,233.2,157.8"/>
		<path class="st6" d="M216.4,241.2c116.6,0,116.6-132,233.2-132"/>
		<path class="st20" d="M216.4,134.6c116.6,0,116.6,107.8,233.2,107.8"/>
		<path class="st8" d="M216.4,156.7c116.6,0,116.6-65.6,233.2-65.6"/>
		<path class="st13" d="M216.4,172.3c116.6,0,116.6-16.7,233.2-16.7"/>
		<path class="st21" d="M216.4,149.8c116.6,0,116.6-79.3,233.2-79.3"/>
		<path class="st6" d="M216.4,237.8C333,237.8,333,92.8,449.6,92.8"/>
		<path class="st21" d="M216.4,168.3C333,168.3,333,134,449.6,134"/>
		<path class="st16" d="M216.4,75.9C333,75.9,333,211.7,449.6,211.7"/>
		<path class="st3" d="M216.4,94.5C333,94.5,333,238.4,449.6,238.4"/>
		<path class="st21" d="M216.4,153.3c116.6,0,116.6-76.3,233.2-76.3"/>
		<path class="st22" d="M216.4,121.3c116.6,0,116.6,1.5,233.2,1.5"/>
		<path class="st23" d="M216.4,269c116.6,0,116.6-63.8,233.2-63.8"/>
		<path class="st15" d="M216.4,90.4C333,90.4,333,195.9,449.6,195.9"/>
		<path class="st24" d="M216.4,275.3c116.6,0,116.6-45.8,233.2-45.8"/>
		<path class="st17" d="M216.4,102.1c116.6,0,116.6,4.3,233.2,4.3"/>
		<path class="st21" d="M216.4,159C333,159,333,98.7,449.6,98.7"/>
		<path class="st14" d="M216.4,77.6C333,77.6,333,237.2,449.6,237.2"/>
		<path class="st8" d="M216.4,155.6c116.6,0,116.6-73.3,233.2-73.3"/>
		<path class="st7" d="M216.4,187.4c116.6,0,116.6,35.9,233.2,35.9"/>
		<path class="st3" d="M216.4,88.7c116.6,0,116.6,77.5,233.2,77.5"/>
		<path class="st25" d="M216.4,193.7c116.6,0,116.6,53.9,233.2,53.9"/>
		<path class="st2" d="M216.4,107.3c116.6,0,116.6,90.9,233.2,90.9"/>
		<path class="st26" d="M216.4,239.5c116.6,0,116.6-138.4,233.2-138.4"/>
		<path class="st17" d="M216.4,103.3c116.6,0,116.6,41.8,233.2,41.8"/>
		<path class="st22" d="M216.4,123.7c116.6,0,116.6,30.2,233.2,30.2"/>
		<path class="st6" d="M216.4,259.7C333,259.7,333,176,449.6,176"/>
		<path class="st5" d="M216.4,263.8c116.6,0,116.6-74.9,233.2-74.9"/>
		<path class="st22" d="M216.4,127.1c116.6,0,116.6,53.6,233.2,53.6"/>
		<path class="st20" d="M216.4,125.4c116.6,0,116.6,43.7,233.2,43.7"/>
		<path class="st13" d="M216.4,165.4c116.6,0,116.6-40.8,233.2-40.8"/>
		<path class="st17" d="M216.4,109.1c116.6,0,116.6,106.6,233.2,106.6"/>
		<path class="st22" d="M216.4,128.3C333,128.3,333,200,449.6,200"/>
		<path class="st8" d="M216.4,170.6c116.6,0,116.6-24.4,233.2-24.4"/>
		<path class="st8" d="M216.4,146.3c116.6,0,116.6-96.1,233.2-96.1"/>
		<path class="st26" d="M216.4,230.3C333,230.3,333,54.4,449.6,54.4"/>
		<path class="st6" d="M216.4,251.6C333,251.6,333,148,449.6,148"/>
		<path class="st3" d="M216.4,87.5c116.6,0,116.6,56.4,233.2,56.4"/>
		<path class="st17" d="M216.4,105.6c116.6,0,116.6,61.7,233.2,61.7"/>
		<path class="st16" d="M216.4,73.5c116.6,0,116.6,68.7,233.2,68.7"/>
		<path class="st2" d="M216.4,116.6c116.6,0,116.6,195.5,233.2,195.5"/>
		<path class="st3" d="M216.4,86.4c116.6,0,116.6,18.8,233.2,18.8"/>
		<path class="st22" d="M216.4,122.5c116.6,0,116.6,9.2,233.2,9.2"/>
		<path class="st17" d="M216.4,104.4c116.6,0,116.6,48.3,233.2,48.3"/>
		<path class="st27" d="M452.6,247.6c116.6,0,116.6-7.5,233.2-7.5"/>
		<path class="st28" d="M452.6,269.2c116.6,0,116.6-220.7,233.2-220.7"/>
		<path class="st27" d="M452.6,261.5c116.6,0,116.6,74.3,233.2,74.3"/>
		<path class="st29" d="M452.6,58.6c116.6,0,116.6,59.7,233.2,59.7"/>
		<path class="st28" d="M452.6,273.8c116.6,0,116.6-145.5,233.2-145.5"/>
		<path class="st30" d="M452.6,160.8c116.6,0,116.6,75.9,233.2,75.9"/>
		<path class="st31" d="M452.6,270.9c116.6,0,116.6-183.3,233.2-183.3"/>
		<path class="st32" d="M452.6,136.3c116.6,0,116.6,217.5,233.2,217.5"/>
		<path class="st33" d="M452.6,243.6c116.6,0,116.6-54.2,233.2-54.2"/>
		<path class="st34" d="M452.6,176c116.6,0,116.6,183,233.2,183"/>
		<path class="st35" d="M452.6,295.7c116.6,0,116.6,19.7,233.2,19.7"/>
		<path class="st31" d="M452.6,289.4c116.6,0,116.6-4.9,233.2-4.9"/>
		<path class="st28" d="M452.6,281.9c116.6,0,116.6-40.5,233.2-40.5"/>
		<path class="st29" d="M452.6,59.8c116.6,0,116.6,139,233.2,139"/>
		<path class="st36" d="M452.6,85.8c116.6,0,116.6,239.6,233.2,239.6"/>
		<path class="st37" d="M452.6,344.4c116.6,0,116.6-4.6,233.2-4.6"/>
		<path class="st38" d="M452.6,65.1c116.6,0,116.6,181.6,233.2,181.6"/>
		<path class="st28" d="M452.6,291.1c116.6,0,116.6,6.3,233.2,6.3"/>
		<path class="st39" d="M452.6,323c116.6,0,116.6-129.6,233.2-129.6"/>
		<path class="st40" d="M452.6,109.9c116.6,0,116.6,240.5,233.2,240.5"/>
		<path class="st37" d="M452.6,349c116.6,0,116.6,22.7,233.2,22.7"/>
		<path class="st41" d="M452.6,118.7c116.6,0,116.6,232.9,233.2,232.9"/>
		<path class="st42" d="M452.6,189.4c116.6,0,116.6,87,233.2,87"/>
		<path class="st43" d="M452.6,203.4c116.6,0,116.6,74.7,233.2,74.7"/>
		<path class="st44" d="M452.6,285.3c116.6,0,116.6-31.7,233.2-31.7"/>
		<path class="st45" d="M452.6,336.9c116.6,0,116.6-36.1,233.2-36.1"/>
		<path class="st33" d="M452.6,258.6c116.6,0,116.6,37,233.2,37"/>
		<path class="st41" d="M452.6,115.2c116.6,0,116.6,119.2,233.2,119.2"/>
		<path class="st46" d="M452.6,126.3c116.6,0,116.6,109.2,233.2,109.2"/>
		<path class="st47" d="M452.6,331.7c116.6,0,116.6-61.8,233.2-61.8"/>
		<path class="st48" d="M452.6,251.7c116.6,0,116.6,14.8,233.2,14.8"/>
		<path class="st49" d="M452.6,309.2C569.2,309.2,569.2,55,685.8,55"/>
		<path class="st50" d="M452.6,46.1c116.6,0,116.6,46.3,233.2,46.3"/>
		<path class="st51" d="M452.6,232.5c116.6,0,116.6,130,233.2,130"/>
		<path class="st52" d="M452.6,93.4c116.6,0,116.6,254.7,233.2,254.7"/>
		<path class="st53" d="M452.6,211.1c116.6,0,116.6-150.8,233.2-150.8"/>
		<path class="st47" d="M452.6,314.4c116.6,0,116.6-177.9,233.2-177.9"/>
		<path class="st28" d="M452.6,274.9c116.6,0,116.6-140.2,233.2-140.2"/>
		<path class="st40" d="M452.6,108.7c116.6,0,116.6,217.8,233.2,217.8"/>
		<path class="st51" d="M452.6,220.9c116.6,0,116.6-8.2,233.2-8.2"/>
		<path class="st38" d="M452.6,64c116.6,0,116.6,169.3,233.2,169.3"/>
		<path class="st46" d="M452.6,124c116.6,0,116.6-25.2,233.2-25.2"/>
		<path class="st36" d="M452.6,84.6c116.6,0,116.6,73.1,233.2,73.1"/>
		<path class="st41" d="M452.6,117.5c116.6,0,116.6,191,233.2,191"/>
		<path class="st27" d="M452.6,246.5c116.6,0,116.6-18.6,233.2-18.6"/>
		<path class="st52" d="M452.6,92.3c116.6,0,116.6,215.1,233.2,215.1"/>
		<path class="st30" d="M452.6,162c116.6,0,116.6,195.3,233.2,195.3"/>
		<path class="st27" d="M452.6,241.9c116.6,0,116.6-78.3,233.2-78.3"/>
		<path class="st49" d="M452.6,328.8c116.6,0,116.6-112,233.2-112"/>
		<path class="st54" d="M452.6,71.6c116.6,0,116.6,138.2,233.2,138.2"/>
		<path class="st49" d="M452.6,319.6c116.6,0,116.6-146.1,233.2-146.1"/>
		<path class="st49" d="M452.6,311.5c116.6,0,116.6-216.8,233.2-216.8"/>
		<path class="st55" d="M452.6,90.5c116.6,0,116.6,131,233.2,131"/>
		<path class="st56" d="M452.6,131.7c116.6,0,116.6-72.5,233.2-72.5"/>
		<path class="st54" d="M452.6,69.3c116.6,0,116.6,56.7,233.2,56.7"/>
		<path class="st51" d="M452.6,226.7c116.6,0,116.6,66.6,233.2,66.6"/>
		<path class="st27" d="M452.6,237.2c116.6,0,116.6-213.9,233.2-213.9"/>
		<path class="st57" d="M452.6,78.1c116.6,0,116.6,268.8,233.2,268.8"/>
		<path class="st49" d="M452.6,308c116.6,0,116.6-258.4,233.2-258.4"/>
		<path class="st27" d="M452.6,248.8c116.6,0,116.6,1.4,233.2,1.4"/>
		<path class="st46" d="M452.6,127.5c116.6,0,116.6,200.2,233.2,200.2"/>
		<path class="st58" d="M452.6,199.4c116.6,0,116.6-38.8,233.2-38.8"/>
		<path class="st43" d="M452.6,196.5c116.6,0,116.6-75.9,233.2-75.9"/>
		<path class="st40" d="M452.6,107.6c116.6,0,116.6,140.3,233.2,140.3"/>
		<path class="st49" d="M452.6,333.4c116.6,0,116.6-47.2,233.2-47.2"/>
		<path class="st59" d="M452.6,101.1c116.6,0,116.6,248.2,233.2,248.2"/>
		<path class="st28" d="M452.6,277.2c116.6,0,116.6-95,233.2-95"/>
		<path class="st27" d="M452.6,238.4c116.6,0,116.6-210.8,233.2-210.8"/>
		<path class="st36" d="M452.6,83.4c116.6,0,116.6,50.2,233.2,50.2"/>
		<path class="st43" d="M452.6,206.9c116.6,0,116.6,153.9,233.2,153.9"/>
		<path class="st60" d="M452.6,169.6c116.6,0,116.6,32.6,233.2,32.6"/>
		<path class="st31" d="M452.6,302.1c116.6,0,116.6,66.2,233.2,66.2"/>
		<path class="st51" d="M452.6,223.2c116.6,0,116.6,2.9,233.2,2.9"/>
		<path class="st61" d="M452.6,255.7c116.6,0,116.6,25.9,233.2,25.9"/>
		<path class="st39" d="M452.6,326.5c116.6,0,116.6-122,233.2-122"/>
		<path class="st43" d="M452.6,205.8c116.6,0,116.6,125.4,233.2,125.4"/>
		<path class="st59" d="M452.6,97.6c116.6,0,116.6-65.9,233.2-65.9"/>
		<path class="st62" d="M452.6,146.8c116.6,0,116.6,182.6,233.2,182.6"/>
		<path class="st63" d="M452.6,229.6c116.6,0,116.6,103.9,233.2,103.9"/>
		<path class="st30" d="M452.6,153.9c116.6,0,116.6-100.1,233.2-100.1"/>
		<path class="st34" d="M452.6,172.5c116.6,0,116.6,51.3,233.2,51.3"/>
		<path class="st27" d="M452.6,260.3c116.6,0,116.6,50.5,233.2,50.5"/>
		<path class="st64" d="M452.6,191.2c116.6,0,116.6,100.4,233.2,100.4"/>
		<path class="st61" d="M452.6,263.8c116.6,0,116.6,101.6,233.2,101.6"/>
		<path class="st64" d="M452.6,183.1c116.6,0,116.6-75.4,233.2-75.4"/>
		<path class="st34" d="M452.6,167.9c116.6,0,116.6,11.5,233.2,11.5"/>
		<path class="st42" d="M452.6,187.1c116.6,0,116.6,74.7,233.2,74.7"/>
		<path class="st46" d="M452.6,125.2c116.6,0,116.6,75.9,233.2,75.9"/>
		<path class="st39" d="M452.6,317.3c116.6,0,116.6-164.9,233.2-164.9"/>
		<path class="st28" d="M452.6,280.7c116.6,0,116.6-51.7,233.2-51.7"/>
		<path class="st49" d="M452.6,330c116.6,0,116.6-87.5,233.2-87.5"/>
		<path class="st28" d="M452.6,278.4c116.6,0,116.6-87.3,233.2-87.3"/>
		<path class="st53" d="M452.6,212.2c116.6,0,116.6-112.3,233.2-112.3"/>
		<path class="st27" d="M452.6,240.7c116.6,0,116.6-139.6,233.2-139.6"/>
		<path class="st65" d="M452.6,148.6c116.6,0,116.6,207.6,233.2,207.6"/>
		<path class="st66" d="M452.6,50.3c116.6,0,116.6,295.5,233.2,295.5"/>
		<path class="st43" d="M452.6,204.6c116.6,0,116.6,105,233.2,105"/>
		<path class="st42" d="M452.6,184.8c116.6,0,116.6,53.6,233.2,53.6"/>
		<path class="st59" d="M452.6,99.9c116.6,0,116.6,27.2,233.2,27.2"/>
		<path class="st67" d="M452.6,54.4c116.6,0,116.6,94.5,233.2,94.5"/>
		<path class="st27" d="M452.6,239.5c116.6,0,116.6-153.7,233.2-153.7"/>
		<path class="st49" d="M452.6,312.6c116.6,0,116.6-183.2,233.2-183.2"/>
		<path class="st47" d="M452.6,340.9c116.6,0,116.6-20.3,233.2-20.3"/>
		<path class="st40" d="M452.6,106.4c116.6,0,116.6,43.7,233.2,43.7"/>
		<path class="st60" d="M452.6,166.2c116.6,0,116.6-72.7,233.2-72.7"/>
		<path class="st43" d="M452.6,195.3c116.6,0,116.6-81.2,233.2-81.2"/>
		<path class="st59" d="M452.6,98.7c116.6,0,116.6-62.8,233.2-62.8"/>
		<path class="st30" d="M452.6,158.5c116.6,0,116.6,11.5,233.2,11.5"/>
		<path class="st27" d="M452.6,245.3c116.6,0,116.6-30.8,233.2-30.8"/>
		<path class="st62" d="M452.6,142.2c116.6,0,116.6-36.3,233.2-36.3"/>
		<path class="st30" d="M452.6,157.4c116.6,0,116.6-44.4,233.2-44.4"/>
		<path class="st49" d="M452.6,320.7c116.6,0,116.6-137.3,233.2-137.3"/>
		<path class="st41" d="M452.6,114.1c116.6,0,116.6-2.2,233.2-2.2"/>
		<path class="st64" d="M452.6,180.8c116.6,0,116.6-115.1,233.2-115.1"/>
		<path class="st60" d="M452.6,170.8c116.6,0,116.6,40.2,233.2,40.2"/>
		<path class="st28" d="M452.6,272.6c116.6,0,116.6-150.8,233.2-150.8"/>
		<path class="st28" d="M452.6,300.4c116.6,0,116.6,36.6,233.2,36.6"/>
		<path class="st51" d="M452.6,216.3c116.6,0,116.6-44.6,233.2-44.6"/>
		<path class="st40" d="M452.6,105.2c116.6,0,116.6,14.2,233.2,14.2"/>
		<path class="st56" d="M452.6,132.8c116.6,0,116.6,34.9,233.2,34.9"/>
		<path class="st49" d="M452.6,310.3C569.2,310.3,569.2,71,685.8,71"/>
		<path class="st43" d="M452.6,202.3c116.6,0,116.6,61.3,233.2,61.3"/>
		<path class="st41" d="M452.6,116.4c116.6,0,116.6,132.6,233.2,132.6"/>
		<path class="st28" d="M452.6,276.1c116.6,0,116.6-131.4,233.2-131.4"/>
		<path class="st51" d="M452.6,214c116.6,0,116.6-71,233.2-71"/>
		<path class="st65" d="M452.6,145.1c116.6,0,116.6,115,233.2,115"/>
		<path class="st60" d="M452.6,174.3c116.6,0,116.6,100.4,233.2,100.4"/>
		<path class="st53" d="M452.6,219.2c116.6,0,116.6-31.6,233.2-31.6"/>
		<path class="st57" d="M452.6,75.8c116.6,0,116.6-11.3,233.2-11.3"/>
		<path class="st46" d="M452.6,122.9c116.6,0,116.6-47.7,233.2-47.7"/>
		<path class="st36" d="M452.6,82.3c116.6,0,116.6-1.8,233.2-1.8"/>
		<path class="st30" d="M452.6,155.1c116.6,0,116.6-78.7,233.2-78.7"/>
		<path class="st57" d="M452.6,76.9c116.6,0,116.6,64.3,233.2,64.3"/>
		<path class="st30" d="M452.6,159.7c116.6,0,116.6,18,233.2,18"/>
		<path class="st54" d="M452.6,70.5c116.6,0,116.6,129.4,233.2,129.4"/>
		<path class="st53" d="M452.6,218c116.6,0,116.6-36.9,233.2-36.9"/>
		<path class="st56" d="M452.6,134c116.6,0,116.6,156.5,233.2,156.5"/>
		<path class="st30" d="M452.6,152.7c116.6,0,116.6-112.7,233.2-112.7"/>
		<path class="st49" d="M452.6,306.9c116.6,0,116.6-262.6,233.2-262.6"/>
		<path class="st65" d="M452.6,143.9c116.6,0,116.6,24.9,233.2,24.9"/>
		<path class="st64" d="M452.6,181.9c116.6,0,116.6-112.1,233.2-112.1"/>
		<path class="st53" d="M452.6,225c116.6,0,116.6,54.4,233.2,54.4"/>
		<path class="st28" d="M452.6,279.6c116.6,0,116.6-63.9,233.2-63.9"/>
		<path class="st30" d="M452.6,156.2c116.6,0,116.6-74.6,233.2-74.6"/>
	</g>
	<g>
		<g>
			<text transform="matrix(1 0 0 1 455.0357 45.7525)" class="st68 st69">4.7</text>
		</g>
		<g>
			<text transform="matrix(1 0 0 1 455.0357 49.937)" class="st68 st69">5.4</text>
		</g>
		<g>
			<text transform="matrix(1 0 0 1 455.0357 54.1226)" class="st68 st69">6.6</text>
		</g>
		<g>
			<text transform="matrix(1 0 0 1 711.7647 23.0396)" class="st68 st69">Santibañez Boric, Mónica</text>
		</g>
		<g>
			<text transform="matrix(1 0 0 1 722.1876 27.2251)" class="st68 st69">Ruiz Balart, Macarena</text>
		</g>
		<g>
			<text transform="matrix(1 0 0 1 723.8721 31.4097)" class="st68 st69">Stange Marcus, Hans</text>
		</g>
		<g>
			<text transform="matrix(1 0 0 1 723.5518 35.5894)" class="st68 st69">Molina Oyarzún, Raúl</text>
		</g>
		<g>
			<text transform="matrix(1 0 0 1 715.4659 39.774)" class="st68 st69">Silva Roquefort, Rebeca</text>
		</g>
		<g>
			<text transform="matrix(1 0 0 1 722.0909 43.9595)" class="st68 st69">Mora Briones,</text>
			<text transform="matrix(1 0 0 1 762.4776 43.9595)" class="st68 st69"> </text>
			<text transform="matrix(1 0 0 1 763.9366 43.9595)" class="st68 st69">Alfredo</text>
		</g>
		<g>
			<text transform="matrix(1 0 0 1 455.0357 58.8824)" class="st68 st69">5.9</text>
		</g>
		<g>
			<text transform="matrix(1 0 0 1 455.0357 64.2251)" class="st68 st69">5.2</text>
		</g>
		<g>
			<text transform="matrix(1 0 0 1 717.9249 48.7202)" class="st68 st69">V</text>
			<text transform="matrix(1 0 0 1 721.8546 48.7202)" class="st68 st69">ico Sánchez, Mauricio</text>
		</g>
		<g>
			<text transform="matrix(1 0 0 1 730.6192 54.062)" class="st68 st69">Perelli Soto, Bruno</text>
		</g>
		<g>
			<text transform="matrix(1 0 0 1 712.1036 59.4038)" class="st68 st69">Lepe Muñoz, Juan Carlos</text>
		</g>
		<g>
			<text transform="matrix(1 0 0 1 725.8829 64.7398)" class="st68 st69">Perea Morales, René</text>
		</g>
		<g>
			<text transform="matrix(1 0 0 1 721.8497 70.0816)" class="st68 st69">Méndez Olivares, Iván</text>
		</g>
		<g>
			<text transform="matrix(1 0 0 1 704.3458 75.4243)" class="st68 st69">Benavides Bermúdez, Paola</text>
		</g>
		<g>
			<text transform="matrix(1 0 0 1 725.3262 80.7593)" class="st68 st69">Jove</text>
			<text transform="matrix(1 0 0 1 739.129 80.7593)" class="st68 st69"> A</text>
			<text transform="matrix(1 0 0 1 744.7374 80.7593)" class="st68 st69">vilés, </text>
			<text transform="matrix(1 0 0 1 761.5743 80.7593)" class="st68 st69">T</text>
			<text transform="matrix(1 0 0 1 764.9424 80.7593)" class="st68 st69">rinidad</text>
		</g>
		<g>
			<text transform="matrix(1 0 0 1 455.0357 70.1421)" class="st68 st69">6.1</text>
		</g>
		<g>
			<text transform="matrix(1 0 0 1 455.0357 76.6353)" class="st68 st69">4.6</text>
		</g>
		<g>
			<text transform="matrix(1 0 0 1 721.8614 86.6763)" class="st68 st69">Gómez Moya, Cristián</text>
		</g>
		<g>
			<text transform="matrix(1 0 0 1 729.5958 93.1753)" class="st68 st69">Reyes León, Daniel</text>
		</g>
		<g>
			<text transform="matrix(1 0 0 1 700.6641 99.6685)" class="st68 st69">Zorzano Betancourt, Osvaldo</text>
		</g>
		<g>
			<text transform="matrix(1 0 0 1 698.9796 106.1665)" class="st68 st69">Maldonado de la Fuente, Felix</text>
		</g>
		<g>
			<text transform="matrix(1 0 0 1 692.2383 112.6597)" class="st68 st69">Pradenas Guentherodt, Gabriela</text>
		</g>
		<g>
			<text transform="matrix(1 0 0 1 455.0357 83.7095)" class="st68 st69">5.6</text>
		</g>
		<g>
			<text transform="matrix(1 0 0 1 455.0357 91.3589)" class="st68 st69">5.3</text>
		</g>
		<g>
			<text transform="matrix(1 0 0 1 455.0357 99.0083)" class="st68 st69">4.8</text>
		</g>
		<g>
			<text transform="matrix(1 0 0 1 721.9639 119.7339)" class="st68 st69">T</text>
			<text transform="matrix(1 0 0 1 725.2169 119.7339)" class="st68 st69">apia Reyes, Mauricio</text>
		</g>
		<g>
			<text transform="matrix(1 0 0 1 729.6016 127.3833)" class="st68 st69">Lares López, Lorna</text>
		</g>
		<g>
			<text transform="matrix(1 0 0 1 718.8331 135.0396)" class="st68 st69">Nuñez Gutiérrez, Pablo</text>
		</g>
		<g>
			<text transform="matrix(1 0 0 1 716.3692 142.689)" class="st68 st69">Marín Pacheco,</text>
			<text transform="matrix(1 0 0 1 760.7999 142.689)" class="st68 st69"> </text>
			<text transform="matrix(1 0 0 1 762.2598 142.689)" class="st68 st69">Antonio</text>
		</g>
		<g>
			<text transform="matrix(1 0 0 1 455.0357 107.2398)" class="st68 st69">6.8</text>
		</g>
		<g>
			<text transform="matrix(1 0 0 1 455.0357 116.0454)" class="st68 st69">6.7</text>
		</g>
		<g>
			<text transform="matrix(1 0 0 1 455.0357 124.8521)" class="st68 st69">5.7</text>
		</g>
		<g>
			<text transform="matrix(1 0 0 1 702.668 150.9195)" class="st68 st69">Pagueguy Fenne</text>
			<text transform="matrix(1 0 0 1 751.128 150.9195)" class="st68 st69">r</text>
			<text transform="matrix(1 0 0 1 753.1505 150.9195)" class="st68 st69">, Sebastián</text>
		</g>
		<g>
			<text transform="matrix(1 0 0 1 455.0357 134.2398)" class="st68 st69">4</text>
		</g>
		<g>
			<text transform="matrix(1 0 0 1 716.793 160.3013)" class="st68 st69">Gatica Ramírez, Pamela</text>
		</g>
		<g>
			<text transform="matrix(1 0 0 1 710.4083 170.2642)" class="st68 st69">Morales Mujica, María Paz</text>
		</g>
		<g>
			<text transform="matrix(1 0 0 1 722.1944 180.2281)" class="st68 st69">Y</text>
			<text transform="matrix(1 0 0 1 725.7862 180.2281)" class="st68 st69">oung</text>
			<text transform="matrix(1 0 0 1 740.5821 180.2281)" class="st68 st69"> </text>
			<text transform="matrix(1 0 0 1 742.0411 180.2281)" class="st68 st69">Araya, Mariana</text>
		</g>
		<g>
			<text transform="matrix(1 0 0 1 455.0357 144.7779)" class="st68 st69">6.2</text>
		</g>
		<g>
			<text transform="matrix(1 0 0 1 720.5108 190.7661)" class="st68 st69">Osses Flores, Roberto</text>
		</g>
		<g>
			<text transform="matrix(1 0 0 1 711.0928 201.8872)" class="st68 st69">Donoso Cisternas, Sergio</text>
		</g>
		<g>
			<text transform="matrix(1 0 0 1 706.7081 213.0064)" class="st68 st69">De la Sotta Lazzerini, Paola</text>
		</g>
		<g>
			<text transform="matrix(1 0 0 1 716.8282 224.7017)" class="st68 st69">Soto Calquín, Leonardo</text>
		</g>
		<g>
			<text transform="matrix(1 0 0 1 455.0357 157.0552)" class="st68 st69">5</text>
		</g>
		<g>
			<text transform="matrix(1 0 0 1 165.8531 76.1138)" class="st68 st70">Diseñador</text>
		</g>
		<g>
			<text transform="matrix(1 0 0 1 719.4991 237.5542)" class="st68 st69">Cortez Orellana, Felipe</text>
		</g>
		<g>
			<text transform="matrix(1 0 0 1 707.0587 250.982)" class="st68 st69">Castillo Espinoza, Eduardo</text>
		</g>
		<g>
			<text transform="matrix(1 0 0 1 455.0357 171.064)" class="st68 st69">4.5</text>
		</g>
		<g>
			<text transform="matrix(1 0 0 1 455.0357 185.649)" class="st68 st69">6.3</text>
		</g>
		<g>
			<text transform="matrix(1 0 0 1 725.9014 264.9908)" class="st68 st69">Abud Carrillo, Jenny</text>
		</g>
		<g>
			<text transform="matrix(1 0 0 1 23.5474 90.7046)" class="st68 st70">Diseñador con mención Industrial y Servicios</text>
		</g>
		<g>
			<text transform="matrix(1 0 0 1 455.0357 200.8081)" class="st68 st69">5.8</text>
		</g>
		<g>
			<text transform="matrix(1 0 0 1 712.086 280.1558)" class="st68 st69">W</text>
			<text transform="matrix(1 0 0 1 717.6944 280.1558)" class="st68 st69">echsler Pizarro,</text>
			<text transform="matrix(1 0 0 1 762.8038 280.1558)" class="st68 st69"> </text>
			<text transform="matrix(1 0 0 1 764.2637 280.1558)" class="st68 st69">Andrea</text>
		</g>
		<g>
			<text transform="matrix(1 0 0 1 705.709 296.4732)" class="st68 st69">Dueñas Santande</text>
			<text transform="matrix(1 0 0 1 756.5294 296.4732)" class="st68 st69">r</text>
			<text transform="matrix(1 0 0 1 758.5518 296.4732)" class="st68 st69">, Rodrigo</text>
		</g>
		<g>
			<text transform="matrix(1 0 0 1 718.4952 313.9468)" class="st68 st69">Jacob Dazarola, Rubén</text>
		</g>
		<g>
			<text transform="matrix(1 0 0 1 161.1373 108.7534)" class="st68 st70">Diseñadora</text>
		</g>
		<g>
			<text transform="matrix(1 0 0 1 726.8946 333.1577)" class="st68 st69">Ode Saleh, </text>
			<text transform="matrix(1 0 0 1 759.879 333.1577)" class="st68 st69">V</text>
			<text transform="matrix(1 0 0 1 763.587 333.1577)" class="st68 st69">erónica</text>
		</g>
		<g>
			<text transform="matrix(1 0 0 1 13.1924 131.4292)" class="st68 st70">Diseñador con mención en  Visualidad y Medios</text>
		</g>
		<g>
			<text transform="matrix(1 0 0 1 455.0357 221.7525)" class="st68 st69">5.5</text>
		</g>
		<g>
			<text transform="matrix(1 0 0 1 455.0357 250.7876)" class="st68 st69">6.5</text>
		</g>
		<g>
			<text transform="matrix(1 0 0 1 704.3702 359.2993)" class="st68 st69">Domínguez González, Pablo</text>
		</g>
		<g>
			<text transform="matrix(1 0 0 1 455.0357 285.5952)" class="st68 st69">7</text>
		</g>
		<g>
			<text transform="matrix(1 0 0 1 455.0357 328.5005)" class="st68 st69">6</text>
		</g>
		<g>
			<text transform="matrix(1 0 0 1 18.8316 185.8911)" class="st68 st70">Diseñadora con mención Industrial y Servicios</text>
		</g>
		<g>
			<text transform="matrix(1 0 0 1 8.4771 277.3335)" class="st68 st70">Diseñadora con mención en Visualidad y Medios </text>
		</g>
	</g>
	<g>
		<text transform="matrix(1 0 0 1 426.0601 35.8667)" class="st71 st68 st72">nota_proyecto</text>
		<text transform="matrix(1 0 0 1 670.8975 20.3501)" class="st71 st68 st72">profe_guia</text>
		<text transform="matrix(1 0 0 1 146.0547 68.8042)" class="st71 st68 st72">titulo_profesional</text>
	</g>
</g>
</svg>
