<?xml version="1.0" encoding="utf-8"?>
<!-- Generator: Adobe Illustrator 28.1.0, SVG Export Plug-In . SVG Version: 6.00 Build 0)  -->
<svg version="1.1" id="Layer_1" xmlns="http://www.w3.org/2000/svg" xmlns:xlink="http://www.w3.org/1999/xlink" x="0px" y="0px"
	 viewBox="0 0 800 600" style="enable-background:new 0 0 800 400;" xml:space="preserve">
<style type="text/css">
	.st0{fill:#FF001F;}
	.st1{fill:#00FF00;}
	.st2{fill:#9B9B9B;}
	.st3{fill:none;stroke:#000000;stroke-width:0.6564;}
	.st4{font-family:'ArialMT';}
	.st5{font-size:6.5637px;}
	.st6{fill:#7B7B7B;}
	.st7{font-family:'Arial-BoldMT';}
	.st8{font-size:7.8764px;}
	.st9{fill:none;stroke:#CCCCCC;stroke-width:0.6564;}
</style>
<g id="viz">
	<g transform="translate(0,0)">
		<g transform="translate(50,20)">
			<g id="_Reprueban">
				<rect x="66.2" y="324" class="st0" width="78" height="39.8"/>
				<rect x="144.9" y="311.7" class="st0" width="78" height="52.1"/>
				<rect x="223.6" y="273.4" class="st0" width="78" height="90.4"/>
				<rect x="302.2" y="291.8" class="st0" width="78" height="72"/>
				<rect x="380.9" y="297.9" class="st0" width="78" height="65.9"/>
				<rect x="459.6" y="331.6" class="st0" width="78" height="32.2"/>
				<rect x="538.2" y="285.7" class="st0" width="78" height="78.1"/>
			</g>
			<g id="_Aprueban">
				<rect x="66.2" y="319.4" class="st1" width="78" height="4.6"/>
				<rect x="144.9" y="296.4" class="st1" width="78" height="15.3"/>
				<rect x="223.6" y="256.6" class="st1" width="78" height="16.8"/>
				<rect x="302.2" y="261.2" class="st1" width="78" height="30.6"/>
				<rect x="380.9" y="213.7" class="st1" width="78" height="84.2"/>
				<rect x="459.6" y="271.9" class="st1" width="78" height="59.7"/>
				<rect x="538.2" y="180" class="st1" width="78" height="105.7"/>
			</g>
			<g id="_Inscritos">
				<rect x="66.2" y="275" class="st2" width="78" height="44.4"/>
				<rect x="144.9" y="229" class="st2" width="78" height="67.4"/>
				<rect x="223.6" y="149.4" class="st2" width="78" height="107.2"/>
				<rect x="302.2" y="158.6" class="st2" width="78" height="102.6"/>
				<rect x="380.9" y="63.6" class="st2" width="78" height="150.1"/>
				<rect x="459.6" y="180" class="st2" width="78" height="91.9"/>
				<rect x="538.2" y="-3.8" class="st2" width="78" height="183.8"/>
			</g>
			<g id="xAxis" transform="translate(0,560)">
				<path class="st3" d="M65.9-195.9h551.3"/>
				<g transform="translate(60.42806183115338,0)">
					<line class="st3" x1="44.8" y1="-196.2" x2="44.8" y2="-192.3"/>
					<text transform="matrix(1 0 0 1 34.5719 -185.6504)" class="st4 st5">2021-2</text>
				</g>
				<g transform="translate(180.28537455410225,0)">
					<line class="st3" x1="3.6" y1="-196.2" x2="3.6" y2="-192.3"/>
					<text transform="matrix(1 0 0 1 -6.615 -185.6504)" class="st4 st5">2022-1</text>
				</g>
				<g transform="translate(300.14268727705115,0)">
					<line class="st3" x1="-37.6" y1="-196.2" x2="-37.6" y2="-192.3"/>
					<text transform="matrix(1 0 0 1 -47.8019 -185.6504)" class="st4 st5">2022-2</text>
				</g>
				<g transform="translate(420,0)">
					<line class="st3" x1="-78.8" y1="-196.2" x2="-78.8" y2="-192.3"/>
					<text transform="matrix(1 0 0 1 -88.9893 -185.6504)" class="st4 st5">2023-1</text>
				</g>
				<g transform="translate(539.8573127229489,0)">
					<line class="st3" x1="-120" y1="-196.2" x2="-120" y2="-192.3"/>
					<text transform="matrix(1 0 0 1 -130.1757 -185.6504)" class="st4 st5">2023-2</text>
				</g>
				<g transform="translate(659.7146254458978,0)">
					<line class="st3" x1="-161.1" y1="-196.2" x2="-161.1" y2="-192.3"/>
					<text transform="matrix(1 0 0 1 -171.3631 -185.6504)" class="st4 st5">2024-1</text>
				</g>
				<g transform="translate(779.5719381688466,0)">
					<line class="st3" x1="-202.3" y1="-196.2" x2="-202.3" y2="-192.3"/>
					<text transform="matrix(1 0 0 1 -212.5496 -185.6504)" class="st4 st5">2024-2</text>
				</g>
			</g>
			<g id="yAxis">
				<path class="st3" d="M65.9,364.1V-3.5"/>
				<g transform="translate(0,560.5)">
					<line class="st3" x1="65.6" y1="-196.4" x2="61.6" y2="-196.4"/>
					<text transform="matrix(1 0 0 1 55.998 -194.2891)" class="st4 st5">0</text>
				</g>
				<g transform="translate(0,513.8333333333333)">
					<line class="st3" x1="65.6" y1="-180.4" x2="61.6" y2="-180.4"/>
					<text transform="matrix(1 0 0 1 52.3476 -178.2523)" class="st4 st5">20</text>
				</g>
				<g transform="translate(0,467.1666666666667)">
					<line class="st3" x1="65.6" y1="-164.3" x2="61.6" y2="-164.3"/>
					<text transform="matrix(1 0 0 1 52.3476 -162.2165)" class="st4 st5">40</text>
				</g>
				<g transform="translate(0,420.5)">
					<line class="st3" x1="65.6" y1="-148.3" x2="61.6" y2="-148.3"/>
					<text transform="matrix(1 0 0 1 52.3476 -146.1797)" class="st4 st5">60</text>
				</g>
				<g transform="translate(0,373.83333333333337)">
					<line class="st3" x1="65.6" y1="-132.2" x2="61.6" y2="-132.2"/>
					<text transform="matrix(1 0 0 1 52.3476 -130.1439)" class="st4 st5">80</text>
				</g>
				<g transform="translate(0,327.16666666666663)">
					<line class="st3" x1="65.6" y1="-116.2" x2="61.6" y2="-116.2"/>
					<text transform="matrix(1 0 0 1 48.6972 -114.1081)" class="st4 st5">100</text>
				</g>
				<g transform="translate(0,280.5)">
					<line class="st3" x1="65.6" y1="-100.2" x2="61.6" y2="-100.2"/>
					<text transform="matrix(1 0 0 1 48.6972 -98.0713)" class="st4 st5">120</text>
				</g>
				<g transform="translate(0,233.83333333333331)">
					<line class="st3" x1="65.6" y1="-84.1" x2="61.6" y2="-84.1"/>
					<text transform="matrix(1 0 0 1 48.6972 -82.0355)" class="st4 st5">140</text>
				</g>
				<g transform="translate(0,187.16666666666669)">
					<line class="st3" x1="65.6" y1="-68.1" x2="61.6" y2="-68.1"/>
					<text transform="matrix(1 0 0 1 48.6972 -65.9987)" class="st4 st5">160</text>
				</g>
				<g transform="translate(0,140.5)">
					<line class="st3" x1="65.6" y1="-52.1" x2="61.6" y2="-52.1"/>
					<text transform="matrix(1 0 0 1 48.6972 -49.9629)" class="st4 st5">180</text>
				</g>
				<g transform="translate(0,93.83333333333331)">
					<line class="st3" x1="65.6" y1="-36" x2="61.6" y2="-36"/>
					<text transform="matrix(1 0 0 1 48.6972 -33.9266)" class="st4 st5">200</text>
				</g>
				<g transform="translate(0,47.166666666666686)">
					<line class="st3" x1="65.6" y1="-20" x2="61.6" y2="-20"/>
					<text transform="matrix(1 0 0 1 48.6972 -17.8903)" class="st4 st5">220</text>
				</g>
				<g transform="translate(0,0.5)">
					<line class="st3" x1="65.6" y1="-4" x2="61.6" y2="-4"/>
					<text transform="matrix(1 0 0 1 48.6972 -1.8545)" class="st4 st5">240</text>
				</g>
			</g>
			<text transform="matrix(1 0 0 1 623.4677 361.1572)" class="st6 st7 st8">Semestre</text>
		</g>
	</g>
	<g id="grid">
		<rect x="82.7" y="3.1" class="st9" width="634.5" height="393.8"/>
	</g>
</g>
</svg>
